<svg width="500" height="500" viewBox="0 0 500 500" fill="none" xmlns="http://www.w3.org/2000/svg">
<mask id="path-1-outside-1_154_5" maskUnits="userSpaceOnUse" x="5" y="5" width="490" height="490" fill="black">
<rect fill="white" x="5" y="5" width="490" height="490"/>
<path d="M366.073 58.1155C367.318 56.3633 368.895 54.8734 370.716 53.731C372.536 52.5885 374.564 51.8159 376.683 51.4574C378.802 51.0988 380.971 51.1612 383.066 51.6411C385.161 52.1209 387.141 53.0088 388.893 54.2541C410.883 69.8927 430.094 89.1105 445.724 111.107C447.037 112.854 447.986 114.846 448.516 116.965C449.047 119.085 449.147 121.289 448.812 123.448C448.477 125.607 447.712 127.677 446.564 129.536C445.416 131.395 443.907 133.005 442.126 134.271C440.345 135.537 438.329 136.434 436.197 136.909C434.064 137.383 431.858 137.425 429.708 137.033C427.559 136.641 425.51 135.823 423.682 134.626C421.854 133.429 420.284 131.879 419.065 130.065C405.552 111.055 388.945 94.4478 369.935 80.9353C368.182 79.6907 366.692 78.1132 365.55 76.2927C364.408 74.4722 363.635 72.4445 363.276 70.3254C362.918 68.2062 362.98 66.0372 363.46 63.9422C363.94 61.8472 364.828 59.8673 366.073 58.1155ZM441.884 366.051C443.635 367.297 445.123 368.876 446.263 370.698C447.404 372.519 448.174 374.547 448.531 376.666C448.887 378.785 448.823 380.953 448.341 383.048C447.86 385.142 446.97 387.121 445.724 388.871C430.088 410.856 410.878 430.066 388.893 445.702C387.146 447.015 385.154 447.964 383.035 448.495C380.915 449.025 378.711 449.125 376.552 448.79C374.393 448.455 372.323 447.69 370.464 446.542C368.605 445.394 366.995 443.885 365.729 442.104C364.463 440.324 363.566 438.308 363.091 436.175C362.617 434.042 362.575 431.836 362.967 429.686C363.359 427.537 364.177 425.488 365.374 423.66C366.571 421.832 368.121 420.262 369.935 419.043C388.945 405.53 405.552 388.923 419.065 369.913C420.309 368.161 421.887 366.671 423.707 365.528C425.528 364.386 427.555 363.613 429.675 363.255C431.794 362.896 433.963 362.958 436.058 363.438C438.153 363.918 440.133 364.806 441.884 366.051ZM32.2415 196.387C36.52 197.108 40.337 199.498 42.8531 203.033C45.3692 206.568 46.3783 210.957 45.6585 215.236C41.7752 238.242 41.7752 261.736 45.6585 284.742C46.0166 286.862 45.9536 289.032 45.4732 291.128C44.9927 293.224 44.1042 295.204 42.8583 296.957C41.6124 298.709 40.0336 300.199 38.212 301.341C36.3903 302.483 34.3616 303.255 32.2415 303.613C30.1215 303.971 27.9516 303.908 25.8559 303.428C23.7602 302.948 21.7796 302.059 20.0273 300.813C18.2749 299.567 16.7851 297.988 15.643 296.167C14.5008 294.345 13.7286 292.316 13.3705 290.196C8.8765 263.58 8.8765 236.398 13.3705 209.782C13.7298 207.663 14.503 205.636 15.6459 203.816C16.7888 201.996 18.279 200.419 20.0314 199.175C21.7838 197.931 23.764 197.045 25.8591 196.566C27.9541 196.088 30.1229 196.027 32.2415 196.387ZM196.408 467.758C197.129 463.48 199.52 459.663 203.055 457.147C206.59 454.631 210.979 453.622 215.258 454.342C238.264 458.225 261.758 458.225 284.764 454.342C286.884 453.983 289.054 454.046 291.15 454.527C293.245 455.007 295.226 455.896 296.978 457.142C298.731 458.388 300.22 459.966 301.363 461.788C302.505 463.61 303.277 465.638 303.635 467.758C303.993 469.879 303.93 472.048 303.45 474.144C302.969 476.24 302.081 478.22 300.835 479.973C299.589 481.725 298.01 483.215 296.189 484.357C294.367 485.499 292.338 486.271 290.218 486.63C263.602 491.123 236.42 491.123 209.804 486.63C207.685 486.27 205.658 485.497 203.838 484.354C202.018 483.211 200.441 481.721 199.197 479.969C197.953 478.216 197.067 476.236 196.588 474.141C196.11 472.046 196.049 469.877 196.408 467.758ZM133.949 58.1155C135.194 59.8673 136.082 61.8472 136.562 63.9422C137.042 66.0372 137.104 68.2062 136.745 70.3254C136.387 72.4445 135.614 74.4722 134.472 76.2927C133.329 78.1132 131.839 79.6907 130.087 80.9353C111.07 94.4472 94.4557 111.055 80.9353 130.065C78.4184 133.604 74.599 135.997 70.3174 136.719C66.0359 137.441 61.6428 136.433 58.1046 133.916C54.5665 131.399 52.1731 127.58 51.451 123.298C50.7288 119.017 51.7371 114.623 54.2541 111.085C69.8927 89.0947 89.1105 69.8842 111.107 54.2541C112.859 53.0088 114.839 52.1209 116.934 51.6411C119.029 51.1612 121.198 51.0988 123.317 51.4574C125.436 51.8159 127.464 52.5885 129.284 53.731C131.105 54.8734 132.704 56.3633 133.949 58.1155ZM58.1373 366.051C59.8891 364.806 61.869 363.918 63.964 363.438C66.059 362.958 68.2281 362.896 70.3472 363.255C72.4663 363.613 74.494 364.386 76.3145 365.528C78.135 366.671 79.7126 368.161 80.9571 369.913C94.4697 388.923 111.077 405.53 130.087 419.043C131.839 420.289 133.328 421.868 134.47 423.69C135.612 425.512 136.383 427.541 136.741 429.661C137.098 431.781 137.035 433.95 136.554 436.046C136.073 438.141 135.184 440.122 133.938 441.874C132.692 443.625 131.112 445.115 129.291 446.256C127.469 447.398 125.44 448.17 123.32 448.527C121.2 448.885 119.03 448.821 116.935 448.34C114.839 447.859 112.859 446.97 111.107 445.724C89.1165 430.085 69.906 410.868 54.2759 388.871C53.0306 387.119 52.1427 385.139 51.6629 383.044C51.183 380.949 51.1206 378.78 51.4792 376.661C51.8378 374.542 52.6103 372.514 53.7528 370.694C54.8952 368.873 56.3851 367.296 58.1373 366.051ZM209.804 13.3705C236.42 8.8765 263.602 8.8765 290.218 13.3705C294.479 14.1132 298.272 16.5126 300.769 20.0442C303.266 23.5757 304.263 27.9522 303.542 32.2167C302.821 36.4812 300.441 40.2868 296.922 42.8016C293.404 45.3164 289.032 46.3357 284.764 45.6367C261.758 41.7534 238.264 41.7534 215.258 45.6367C213.138 45.9948 210.968 45.9318 208.872 45.4514C206.776 44.9709 204.796 44.0824 203.043 42.8365C201.291 41.5906 199.801 40.0118 198.659 38.1902C197.517 36.3685 196.745 34.3398 196.387 32.2197C196.029 30.0996 196.092 27.9298 196.572 25.8341C197.052 23.7384 197.941 21.7578 199.187 20.0054C200.433 18.2531 202.012 16.7633 203.833 15.6212C205.655 14.479 207.684 13.7068 209.804 13.3487V13.3705ZM467.78 196.387C472.056 195.666 476.442 196.673 479.976 199.184C483.511 201.696 485.904 205.507 486.63 209.782C491.123 236.398 491.123 263.58 486.63 290.196C485.887 294.457 483.487 298.251 479.956 300.747C476.424 303.244 472.048 304.241 467.783 303.52C463.519 302.799 459.713 300.419 457.198 296.9C454.684 293.382 453.664 289.01 454.363 284.742C458.247 261.736 458.247 238.242 454.363 215.236C453.644 210.957 454.653 206.568 457.169 203.033C459.685 199.498 463.502 197.108 467.78 196.387Z"/>
<path d="M79.12 250.48C79.12 156.373 155.413 80.08 249.52 80.08C343.627 80.08 419.92 156.373 419.92 250.48C419.92 344.587 343.627 420.88 249.52 420.88C155.413 420.88 79.12 344.587 79.12 250.48ZM249.52 103.316C210.49 103.316 173.058 118.821 145.46 146.42C117.861 174.018 102.356 211.45 102.356 250.48C102.356 289.51 117.861 326.942 145.46 354.54C173.058 382.139 210.49 397.644 249.52 397.644C288.55 397.644 325.982 382.139 353.58 354.54C381.179 326.942 396.684 289.51 396.684 250.48C396.684 211.45 381.179 174.018 353.58 146.42C325.982 118.821 288.55 103.316 249.52 103.316Z"/>
<path d="M239.421 352.614V327.904H261.491V352.614H239.421ZM239.421 183.338V158.522H261.491V183.338H239.421ZM251.565 334.768C241.005 334.768 231.571 332.867 223.264 329.066C214.957 325.264 208.128 319.878 202.778 312.909C197.498 305.869 194.048 297.562 192.429 287.987L214.288 284.502C216.4 293.514 220.906 300.694 227.805 306.045C234.704 311.325 242.976 313.965 252.621 313.965C262.195 313.965 269.974 311.677 275.958 307.101C282.013 302.525 285.04 296.682 285.04 289.571C285.04 284.502 283.491 280.384 280.394 277.216C277.366 274.048 272.403 271.373 265.504 269.19L229.811 258.208C208.691 251.661 198.131 238.989 198.131 220.192C198.131 211.322 200.243 203.613 204.467 197.066C208.762 190.518 214.781 185.45 222.525 181.859C230.269 178.269 239.315 176.474 249.664 176.474C259.59 176.614 268.39 178.445 276.064 181.965C283.808 185.485 290.214 190.554 295.283 197.171C300.422 203.789 303.978 211.744 305.949 221.037L283.456 225.05C282.47 219.629 280.394 214.842 277.226 210.688C274.128 206.534 270.186 203.296 265.398 200.973C260.682 198.65 255.366 197.453 249.453 197.382C243.891 197.242 238.893 198.122 234.458 200.022C230.093 201.853 226.608 204.458 224.003 207.837C221.469 211.146 220.202 214.912 220.202 219.136C220.202 223.782 221.997 227.725 225.587 230.963C229.178 234.202 234.845 236.982 242.589 239.306L270.573 247.437C283.386 251.238 292.643 256.342 298.346 262.749C304.048 269.155 306.899 277.674 306.899 288.304C306.899 297.597 304.576 305.728 299.93 312.698C295.354 319.597 288.912 325.018 280.605 328.96C272.298 332.832 262.618 334.768 251.565 334.768Z"/>
</mask>
<path d="M366.073 58.1155C367.318 56.3633 368.895 54.8734 370.716 53.731C372.536 52.5885 374.564 51.8159 376.683 51.4574C378.802 51.0988 380.971 51.1612 383.066 51.6411C385.161 52.1209 387.141 53.0088 388.893 54.2541C410.883 69.8927 430.094 89.1105 445.724 111.107C447.037 112.854 447.986 114.846 448.516 116.965C449.047 119.085 449.147 121.289 448.812 123.448C448.477 125.607 447.712 127.677 446.564 129.536C445.416 131.395 443.907 133.005 442.126 134.271C440.345 135.537 438.329 136.434 436.197 136.909C434.064 137.383 431.858 137.425 429.708 137.033C427.559 136.641 425.51 135.823 423.682 134.626C421.854 133.429 420.284 131.879 419.065 130.065C405.552 111.055 388.945 94.4478 369.935 80.9353C368.182 79.6907 366.692 78.1132 365.55 76.2927C364.408 74.4722 363.635 72.4445 363.276 70.3254C362.918 68.2062 362.98 66.0372 363.46 63.9422C363.94 61.8472 364.828 59.8673 366.073 58.1155ZM441.884 366.051C443.635 367.297 445.123 368.876 446.263 370.698C447.404 372.519 448.174 374.547 448.531 376.666C448.887 378.785 448.823 380.953 448.341 383.048C447.86 385.142 446.97 387.121 445.724 388.871C430.088 410.856 410.878 430.066 388.893 445.702C387.146 447.015 385.154 447.964 383.035 448.495C380.915 449.025 378.711 449.125 376.552 448.79C374.393 448.455 372.323 447.69 370.464 446.542C368.605 445.394 366.995 443.885 365.729 442.104C364.463 440.324 363.566 438.308 363.091 436.175C362.617 434.042 362.575 431.836 362.967 429.686C363.359 427.537 364.177 425.488 365.374 423.66C366.571 421.832 368.121 420.262 369.935 419.043C388.945 405.53 405.552 388.923 419.065 369.913C420.309 368.161 421.887 366.671 423.707 365.528C425.528 364.386 427.555 363.613 429.675 363.255C431.794 362.896 433.963 362.958 436.058 363.438C438.153 363.918 440.133 364.806 441.884 366.051ZM32.2415 196.387C36.52 197.108 40.337 199.498 42.8531 203.033C45.3692 206.568 46.3783 210.957 45.6585 215.236C41.7752 238.242 41.7752 261.736 45.6585 284.742C46.0166 286.862 45.9536 289.032 45.4732 291.128C44.9927 293.224 44.1042 295.204 42.8583 296.957C41.6124 298.709 40.0336 300.199 38.212 301.341C36.3903 302.483 34.3616 303.255 32.2415 303.613C30.1215 303.971 27.9516 303.908 25.8559 303.428C23.7602 302.948 21.7796 302.059 20.0273 300.813C18.2749 299.567 16.7851 297.988 15.643 296.167C14.5008 294.345 13.7286 292.316 13.3705 290.196C8.8765 263.58 8.8765 236.398 13.3705 209.782C13.7298 207.663 14.503 205.636 15.6459 203.816C16.7888 201.996 18.279 200.419 20.0314 199.175C21.7838 197.931 23.764 197.045 25.8591 196.566C27.9541 196.088 30.1229 196.027 32.2415 196.387ZM196.408 467.758C197.129 463.48 199.52 459.663 203.055 457.147C206.59 454.631 210.979 453.622 215.258 454.342C238.264 458.225 261.758 458.225 284.764 454.342C286.884 453.983 289.054 454.046 291.15 454.527C293.245 455.007 295.226 455.896 296.978 457.142C298.731 458.388 300.22 459.966 301.363 461.788C302.505 463.61 303.277 465.638 303.635 467.758C303.993 469.879 303.93 472.048 303.45 474.144C302.969 476.24 302.081 478.22 300.835 479.973C299.589 481.725 298.01 483.215 296.189 484.357C294.367 485.499 292.338 486.271 290.218 486.63C263.602 491.123 236.42 491.123 209.804 486.63C207.685 486.27 205.658 485.497 203.838 484.354C202.018 483.211 200.441 481.721 199.197 479.969C197.953 478.216 197.067 476.236 196.588 474.141C196.11 472.046 196.049 469.877 196.408 467.758ZM133.949 58.1155C135.194 59.8673 136.082 61.8472 136.562 63.9422C137.042 66.0372 137.104 68.2062 136.745 70.3254C136.387 72.4445 135.614 74.4722 134.472 76.2927C133.329 78.1132 131.839 79.6907 130.087 80.9353C111.07 94.4472 94.4557 111.055 80.9353 130.065C78.4184 133.604 74.599 135.997 70.3174 136.719C66.0359 137.441 61.6428 136.433 58.1046 133.916C54.5665 131.399 52.1731 127.58 51.451 123.298C50.7288 119.017 51.7371 114.623 54.2541 111.085C69.8927 89.0947 89.1105 69.8842 111.107 54.2541C112.859 53.0088 114.839 52.1209 116.934 51.6411C119.029 51.1612 121.198 51.0988 123.317 51.4574C125.436 51.8159 127.464 52.5885 129.284 53.731C131.105 54.8734 132.704 56.3633 133.949 58.1155ZM58.1373 366.051C59.8891 364.806 61.869 363.918 63.964 363.438C66.059 362.958 68.2281 362.896 70.3472 363.255C72.4663 363.613 74.494 364.386 76.3145 365.528C78.135 366.671 79.7126 368.161 80.9571 369.913C94.4697 388.923 111.077 405.53 130.087 419.043C131.839 420.289 133.328 421.868 134.47 423.69C135.612 425.512 136.383 427.541 136.741 429.661C137.098 431.781 137.035 433.95 136.554 436.046C136.073 438.141 135.184 440.122 133.938 441.874C132.692 443.625 131.112 445.115 129.291 446.256C127.469 447.398 125.44 448.17 123.32 448.527C121.2 448.885 119.03 448.821 116.935 448.34C114.839 447.859 112.859 446.97 111.107 445.724C89.1165 430.085 69.906 410.868 54.2759 388.871C53.0306 387.119 52.1427 385.139 51.6629 383.044C51.183 380.949 51.1206 378.78 51.4792 376.661C51.8378 374.542 52.6103 372.514 53.7528 370.694C54.8952 368.873 56.3851 367.296 58.1373 366.051ZM209.804 13.3705C236.42 8.8765 263.602 8.8765 290.218 13.3705C294.479 14.1132 298.272 16.5126 300.769 20.0442C303.266 23.5757 304.263 27.9522 303.542 32.2167C302.821 36.4812 300.441 40.2868 296.922 42.8016C293.404 45.3164 289.032 46.3357 284.764 45.6367C261.758 41.7534 238.264 41.7534 215.258 45.6367C213.138 45.9948 210.968 45.9318 208.872 45.4514C206.776 44.9709 204.796 44.0824 203.043 42.8365C201.291 41.5906 199.801 40.0118 198.659 38.1902C197.517 36.3685 196.745 34.3398 196.387 32.2197C196.029 30.0996 196.092 27.9298 196.572 25.8341C197.052 23.7384 197.941 21.7578 199.187 20.0054C200.433 18.2531 202.012 16.7633 203.833 15.6212C205.655 14.479 207.684 13.7068 209.804 13.3487V13.3705ZM467.78 196.387C472.056 195.666 476.442 196.673 479.976 199.184C483.511 201.696 485.904 205.507 486.63 209.782C491.123 236.398 491.123 263.58 486.63 290.196C485.887 294.457 483.487 298.251 479.956 300.747C476.424 303.244 472.048 304.241 467.783 303.52C463.519 302.799 459.713 300.419 457.198 296.9C454.684 293.382 453.664 289.01 454.363 284.742C458.247 261.736 458.247 238.242 454.363 215.236C453.644 210.957 454.653 206.568 457.169 203.033C459.685 199.498 463.502 197.108 467.78 196.387Z" fill="url(#paint0_linear_154_5)"/>
<path d="M79.12 250.48C79.12 156.373 155.413 80.08 249.52 80.08C343.627 80.08 419.92 156.373 419.92 250.48C419.92 344.587 343.627 420.88 249.52 420.88C155.413 420.88 79.12 344.587 79.12 250.48ZM249.52 103.316C210.49 103.316 173.058 118.821 145.46 146.42C117.861 174.018 102.356 211.45 102.356 250.48C102.356 289.51 117.861 326.942 145.46 354.54C173.058 382.139 210.49 397.644 249.52 397.644C288.55 397.644 325.982 382.139 353.58 354.54C381.179 326.942 396.684 289.51 396.684 250.48C396.684 211.45 381.179 174.018 353.58 146.42C325.982 118.821 288.55 103.316 249.52 103.316Z" fill="url(#paint1_linear_154_5)"/>
<path d="M239.421 352.614V327.904H261.491V352.614H239.421ZM239.421 183.338V158.522H261.491V183.338H239.421ZM251.565 334.768C241.005 334.768 231.571 332.867 223.264 329.066C214.957 325.264 208.128 319.878 202.778 312.909C197.498 305.869 194.048 297.562 192.429 287.987L214.288 284.502C216.4 293.514 220.906 300.694 227.805 306.045C234.704 311.325 242.976 313.965 252.621 313.965C262.195 313.965 269.974 311.677 275.958 307.101C282.013 302.525 285.04 296.682 285.04 289.571C285.04 284.502 283.491 280.384 280.394 277.216C277.366 274.048 272.403 271.373 265.504 269.19L229.811 258.208C208.691 251.661 198.131 238.989 198.131 220.192C198.131 211.322 200.243 203.613 204.467 197.066C208.762 190.518 214.781 185.45 222.525 181.859C230.269 178.269 239.315 176.474 249.664 176.474C259.59 176.614 268.39 178.445 276.064 181.965C283.808 185.485 290.214 190.554 295.283 197.171C300.422 203.789 303.978 211.744 305.949 221.037L283.456 225.05C282.47 219.629 280.394 214.842 277.226 210.688C274.128 206.534 270.186 203.296 265.398 200.973C260.682 198.65 255.366 197.453 249.453 197.382C243.891 197.242 238.893 198.122 234.458 200.022C230.093 201.853 226.608 204.458 224.003 207.837C221.469 211.146 220.202 214.912 220.202 219.136C220.202 223.782 221.997 227.725 225.587 230.963C229.178 234.202 234.845 236.982 242.589 239.306L270.573 247.437C283.386 251.238 292.643 256.342 298.346 262.749C304.048 269.155 306.899 277.674 306.899 288.304C306.899 297.597 304.576 305.728 299.93 312.698C295.354 319.597 288.912 325.018 280.605 328.96C272.298 332.832 262.618 334.768 251.565 334.768Z" fill="url(#paint2_linear_154_5)"/>
<path d="M366.073 58.1155C367.318 56.3633 368.895 54.8734 370.716 53.731C372.536 52.5885 374.564 51.8159 376.683 51.4574C378.802 51.0988 380.971 51.1612 383.066 51.6411C385.161 52.1209 387.141 53.0088 388.893 54.2541C410.883 69.8927 430.094 89.1105 445.724 111.107C447.037 112.854 447.986 114.846 448.516 116.965C449.047 119.085 449.147 121.289 448.812 123.448C448.477 125.607 447.712 127.677 446.564 129.536C445.416 131.395 443.907 133.005 442.126 134.271C440.345 135.537 438.329 136.434 436.197 136.909C434.064 137.383 431.858 137.425 429.708 137.033C427.559 136.641 425.51 135.823 423.682 134.626C421.854 133.429 420.284 131.879 419.065 130.065C405.552 111.055 388.945 94.4478 369.935 80.9353C368.182 79.6907 366.692 78.1132 365.55 76.2927C364.408 74.4722 363.635 72.4445 363.276 70.3254C362.918 68.2062 362.98 66.0372 363.46 63.9422C363.94 61.8472 364.828 59.8673 366.073 58.1155ZM441.884 366.051C443.635 367.297 445.123 368.876 446.263 370.698C447.404 372.519 448.174 374.547 448.531 376.666C448.887 378.785 448.823 380.953 448.341 383.048C447.86 385.142 446.97 387.121 445.724 388.871C430.088 410.856 410.878 430.066 388.893 445.702C387.146 447.015 385.154 447.964 383.035 448.495C380.915 449.025 378.711 449.125 376.552 448.79C374.393 448.455 372.323 447.69 370.464 446.542C368.605 445.394 366.995 443.885 365.729 442.104C364.463 440.324 363.566 438.308 363.091 436.175C362.617 434.042 362.575 431.836 362.967 429.686C363.359 427.537 364.177 425.488 365.374 423.66C366.571 421.832 368.121 420.262 369.935 419.043C388.945 405.53 405.552 388.923 419.065 369.913C420.309 368.161 421.887 366.671 423.707 365.528C425.528 364.386 427.555 363.613 429.675 363.255C431.794 362.896 433.963 362.958 436.058 363.438C438.153 363.918 440.133 364.806 441.884 366.051ZM32.2415 196.387C36.52 197.108 40.337 199.498 42.8531 203.033C45.3692 206.568 46.3783 210.957 45.6585 215.236C41.7752 238.242 41.7752 261.736 45.6585 284.742C46.0166 286.862 45.9536 289.032 45.4732 291.128C44.9927 293.224 44.1042 295.204 42.8583 296.957C41.6124 298.709 40.0336 300.199 38.212 301.341C36.3903 302.483 34.3616 303.255 32.2415 303.613C30.1215 303.971 27.9516 303.908 25.8559 303.428C23.7602 302.948 21.7796 302.059 20.0273 300.813C18.2749 299.567 16.7851 297.988 15.643 296.167C14.5008 294.345 13.7286 292.316 13.3705 290.196C8.8765 263.58 8.8765 236.398 13.3705 209.782C13.7298 207.663 14.503 205.636 15.6459 203.816C16.7888 201.996 18.279 200.419 20.0314 199.175C21.7838 197.931 23.764 197.045 25.8591 196.566C27.9541 196.088 30.1229 196.027 32.2415 196.387ZM196.408 467.758C197.129 463.48 199.52 459.663 203.055 457.147C206.59 454.631 210.979 453.622 215.258 454.342C238.264 458.225 261.758 458.225 284.764 454.342C286.884 453.983 289.054 454.046 291.15 454.527C293.245 455.007 295.226 455.896 296.978 457.142C298.731 458.388 300.22 459.966 301.363 461.788C302.505 463.61 303.277 465.638 303.635 467.758C303.993 469.879 303.93 472.048 303.45 474.144C302.969 476.24 302.081 478.22 300.835 479.973C299.589 481.725 298.01 483.215 296.189 484.357C294.367 485.499 292.338 486.271 290.218 486.63C263.602 491.123 236.42 491.123 209.804 486.63C207.685 486.27 205.658 485.497 203.838 484.354C202.018 483.211 200.441 481.721 199.197 479.969C197.953 478.216 197.067 476.236 196.588 474.141C196.11 472.046 196.049 469.877 196.408 467.758ZM133.949 58.1155C135.194 59.8673 136.082 61.8472 136.562 63.9422C137.042 66.0372 137.104 68.2062 136.745 70.3254C136.387 72.4445 135.614 74.4722 134.472 76.2927C133.329 78.1132 131.839 79.6907 130.087 80.9353C111.07 94.4472 94.4557 111.055 80.9353 130.065C78.4184 133.604 74.599 135.997 70.3174 136.719C66.0359 137.441 61.6428 136.433 58.1046 133.916C54.5665 131.399 52.1731 127.58 51.451 123.298C50.7288 119.017 51.7371 114.623 54.2541 111.085C69.8927 89.0947 89.1105 69.8842 111.107 54.2541C112.859 53.0088 114.839 52.1209 116.934 51.6411C119.029 51.1612 121.198 51.0988 123.317 51.4574C125.436 51.8159 127.464 52.5885 129.284 53.731C131.105 54.8734 132.704 56.3633 133.949 58.1155ZM58.1373 366.051C59.8891 364.806 61.869 363.918 63.964 363.438C66.059 362.958 68.2281 362.896 70.3472 363.255C72.4663 363.613 74.494 364.386 76.3145 365.528C78.135 366.671 79.7126 368.161 80.9571 369.913C94.4697 388.923 111.077 405.53 130.087 419.043C131.839 420.289 133.328 421.868 134.47 423.69C135.612 425.512 136.383 427.541 136.741 429.661C137.098 431.781 137.035 433.95 136.554 436.046C136.073 438.141 135.184 440.122 133.938 441.874C132.692 443.625 131.112 445.115 129.291 446.256C127.469 447.398 125.44 448.17 123.32 448.527C121.2 448.885 119.03 448.821 116.935 448.34C114.839 447.859 112.859 446.97 111.107 445.724C89.1165 430.085 69.906 410.868 54.2759 388.871C53.0306 387.119 52.1427 385.139 51.6629 383.044C51.183 380.949 51.1206 378.78 51.4792 376.661C51.8378 374.542 52.6103 372.514 53.7528 370.694C54.8952 368.873 56.3851 367.296 58.1373 366.051ZM209.804 13.3705C236.42 8.8765 263.602 8.8765 290.218 13.3705C294.479 14.1132 298.272 16.5126 300.769 20.0442C303.266 23.5757 304.263 27.9522 303.542 32.2167C302.821 36.4812 300.441 40.2868 296.922 42.8016C293.404 45.3164 289.032 46.3357 284.764 45.6367C261.758 41.7534 238.264 41.7534 215.258 45.6367C213.138 45.9948 210.968 45.9318 208.872 45.4514C206.776 44.9709 204.796 44.0824 203.043 42.8365C201.291 41.5906 199.801 40.0118 198.659 38.1902C197.517 36.3685 196.745 34.3398 196.387 32.2197C196.029 30.0996 196.092 27.9298 196.572 25.8341C197.052 23.7384 197.941 21.7578 199.187 20.0054C200.433 18.2531 202.012 16.7633 203.833 15.6212C205.655 14.479 207.684 13.7068 209.804 13.3487V13.3705ZM467.78 196.387C472.056 195.666 476.442 196.673 479.976 199.184C483.511 201.696 485.904 205.507 486.63 209.782C491.123 236.398 491.123 263.58 486.63 290.196C485.887 294.457 483.487 298.251 479.956 300.747C476.424 303.244 472.048 304.241 467.783 303.52C463.519 302.799 459.713 300.419 457.198 296.9C454.684 293.382 453.664 289.01 454.363 284.742C458.247 261.736 458.247 238.242 454.363 215.236C453.644 210.957 454.653 206.568 457.169 203.033C459.685 199.498 463.502 197.108 467.78 196.387Z" stroke="white" stroke-width="10" mask="url(#path-1-outside-1_154_5)"/>
<path d="M79.12 250.48C79.12 156.373 155.413 80.08 249.52 80.08C343.627 80.08 419.92 156.373 419.92 250.48C419.92 344.587 343.627 420.88 249.52 420.88C155.413 420.88 79.12 344.587 79.12 250.48ZM249.52 103.316C210.49 103.316 173.058 118.821 145.46 146.42C117.861 174.018 102.356 211.45 102.356 250.48C102.356 289.51 117.861 326.942 145.46 354.54C173.058 382.139 210.49 397.644 249.52 397.644C288.55 397.644 325.982 382.139 353.58 354.54C381.179 326.942 396.684 289.51 396.684 250.48C396.684 211.45 381.179 174.018 353.58 146.42C325.982 118.821 288.55 103.316 249.52 103.316Z" stroke="white" stroke-width="10" mask="url(#path-1-outside-1_154_5)"/>
<path d="M239.421 352.614V327.904H261.491V352.614H239.421ZM239.421 183.338V158.522H261.491V183.338H239.421ZM251.565 334.768C241.005 334.768 231.571 332.867 223.264 329.066C214.957 325.264 208.128 319.878 202.778 312.909C197.498 305.869 194.048 297.562 192.429 287.987L214.288 284.502C216.4 293.514 220.906 300.694 227.805 306.045C234.704 311.325 242.976 313.965 252.621 313.965C262.195 313.965 269.974 311.677 275.958 307.101C282.013 302.525 285.04 296.682 285.04 289.571C285.04 284.502 283.491 280.384 280.394 277.216C277.366 274.048 272.403 271.373 265.504 269.19L229.811 258.208C208.691 251.661 198.131 238.989 198.131 220.192C198.131 211.322 200.243 203.613 204.467 197.066C208.762 190.518 214.781 185.45 222.525 181.859C230.269 178.269 239.315 176.474 249.664 176.474C259.59 176.614 268.39 178.445 276.064 181.965C283.808 185.485 290.214 190.554 295.283 197.171C300.422 203.789 303.978 211.744 305.949 221.037L283.456 225.05C282.47 219.629 280.394 214.842 277.226 210.688C274.128 206.534 270.186 203.296 265.398 200.973C260.682 198.65 255.366 197.453 249.453 197.382C243.891 197.242 238.893 198.122 234.458 200.022C230.093 201.853 226.608 204.458 224.003 207.837C221.469 211.146 220.202 214.912 220.202 219.136C220.202 223.782 221.997 227.725 225.587 230.963C229.178 234.202 234.845 236.982 242.589 239.306L270.573 247.437C283.386 251.238 292.643 256.342 298.346 262.749C304.048 269.155 306.899 277.674 306.899 288.304C306.899 297.597 304.576 305.728 299.93 312.698C295.354 319.597 288.912 325.018 280.605 328.96C272.298 332.832 262.618 334.768 251.565 334.768Z" stroke="white" stroke-width="10" mask="url(#path-1-outside-1_154_5)"/>
<defs>
<linearGradient id="paint0_linear_154_5" x1="140.08" y1="48.88" x2="406" y2="449.2" gradientUnits="userSpaceOnUse">
<stop stop-color="#6BFF81"/>
<stop offset="1" stop-color="#EDFF61"/>
</linearGradient>
<linearGradient id="paint1_linear_154_5" x1="140.08" y1="48.88" x2="406" y2="449.2" gradientUnits="userSpaceOnUse">
<stop stop-color="#6BFF81"/>
<stop offset="1" stop-color="#EDFF61"/>
</linearGradient>
<linearGradient id="paint2_linear_154_5" x1="140.08" y1="48.88" x2="406" y2="449.2" gradientUnits="userSpaceOnUse">
<stop stop-color="#6BFF81"/>
<stop offset="1" stop-color="#EDFF61"/>
</linearGradient>
</defs>
</svg>
